<?xml version="1.0" encoding="utf-8"?>
<!-- Generator: Adobe Illustrator 24.0.3, SVG Export Plug-In . SVG Version: 6.00 Build 0)  -->
<svg version="1.1" id="Layer_1" xmlns="http://www.w3.org/2000/svg" xmlns:xlink="http://www.w3.org/1999/xlink" x="0px" y="0px"
	 viewBox="0 0 2500 2031" style="enable-background:new 0 0 2500 2031;" xml:space="preserve">
<style type="text/css">
	.st0{fill:#F2F2F2;}
	.st1{fill:#FFFFFF;stroke:#FFFFFF;stroke-width:1.1265;stroke-miterlimit:9.0116;}
</style>
<path class="st0" d="M1670.2,1V0.6h117.2l42.8,8.6c28.5,5.6,54.4,12.8,77.7,21.9c23.3,9,45.8,19.5,67.6,31.5
	c21.8,12,41.5,24.3,59.3,36.7c17.6,12.3,33.3,25.4,47.3,39.2c13.8,14,35.4,17.6,64.7,10.8c29.3-6.8,60.8-16.1,94.6-28.2
	s67.2-25.5,100.3-40.6c33-15,53.2-24.6,60.4-28.6c7.1-4.2,10.8-6.5,11.3-6.8l0.4-0.7l2.3-1.1l2.3-1.1l2.3-1.1l2.3-1.1l0.5-0.7
	l0.7-0.5l0.7-0.5l0.4-0.7l2.3-0.7l2.3-0.5L2429,40l-0.7,3.4l-1.1,3.4l-1.1,3.4l-1.1,2.3l-1.1,2.3l-1.1,3.4c-0.8,2.3-1.5,5.3-2.3,9
	c-0.8,3.8-7.9,18.8-21.4,45.1c-13.5,26.3-30.4,52.9-50.7,80c-20.3,27-38.4,47.5-54.5,61.3c-16.2,14-27,23.7-32.2,29.3
	c-5.3,5.7-11.6,11-19.1,15.8l-11.3,7.4l-2.3,1.1l-2.3,1.1l-0.4,0.7l-0.7,0.5l-0.7,0.5l-0.5,0.7l-2.3,1.1l-2.3,1.1l-0.4,0.7l-0.7,0.5
	l-0.7,0.5l-0.5,0.7l-0.4,0.7l-0.7,0.5l-0.7,0.5l-0.5,0.7h11.3l63.1-13.5c42.1-9,82.2-19.9,120.5-32.7l60.8-20.3l6.8-2.3l3.4-1.1
	l2.3-1.1l2.3-1.1l2.3-1.1l2.3-1.1l4.5-0.7l4.5-0.5v4.5l-1.1,0.5l-1.1,0.7l-0.4,0.7l-0.7,0.5l-0.7,0.5l-0.5,0.7l-0.4,0.7l-0.7,0.5
	l-0.7,0.5l-0.5,0.7l-0.4,0.7l-0.7,0.5l-1.1,2.3l-1.1,2.3l-0.7,0.5c-0.3,0.5-9.8,13.2-28.6,38.3c-18.8,25.2-28.9,38-30.4,38.3
	c-1.5,0.5-3.6,2.7-6.3,6.8c-2.6,4.2-18.5,21-47.8,50.2c-29.3,29.3-58,55.3-86.1,78.2c-28.2,23-42.5,51.2-42.8,84.7
	c-0.5,33.3-2.2,71-5.2,113.1c-3,42.1-8.6,87.5-16.9,136.3c-8.3,48.8-21,104-38.3,165.6c-17.3,61.6-38.3,121.7-63.1,180.2
	c-24.8,58.6-50.7,111.1-77.7,157.7s-51.8,86-74.3,118.3c-22.5,32.3-45.4,62.7-68.7,91.2c-23.3,28.5-52.7,60.7-88.3,96.4
	c-35.7,35.6-55.3,55.1-58.6,58.6c-3.5,3.3-18.2,15.6-44.2,36.9c-25.8,21.5-53.6,43-83.4,64.4c-29.6,21.3-56.8,39.1-81.6,53.4
	c-24.8,14.3-54.7,30.6-89.7,48.9c-34.8,18.5-72.5,35.6-113.1,51.4c-40.6,15.8-83.4,30.4-128.4,43.9s-88.6,24-130.7,31.5
	c-42.1,7.5-89.7,13.9-143.1,19.1l-80,7.9v1.1H714.9v-1.1l-19.1-1.1c-12.8-0.8-23.3-1.5-31.5-2.3c-8.3-0.8-39.4-4.9-93.5-12.4
	c-54.1-7.5-96.5-15-127.3-22.5c-30.8-7.5-76.6-21.8-137.4-42.8c-60.8-21-112.9-42.3-156.1-63.8c-43.1-21.3-70.1-34.8-81.1-40.6
	c-10.8-5.6-23-12.5-36.5-20.7L12,1810.8l-0.4-0.7l-0.7-0.5l-0.7-0.5l-0.5-0.7l-2.3-1.1l-2.3-1.1l-0.4-0.7l-0.7-0.5l-0.7-0.5L3,1804
	l-0.4-0.7l-0.7-0.5H0.8v-4.5l2.3,0.5l2.3,0.7l10.1,1.1c6.8,0.8,25.2,1.9,55.2,3.4c30,1.5,62,1.5,95.7,0s68.3-4.9,103.6-10.1
	c35.3-5.3,77-14.3,125-27c48.1-12.8,92.2-27.9,132.5-45.5c40.1-17.7,68.6-30.9,85.6-39.7c16.8-8.6,42.5-24.5,77-47.8L742,1599
	l0.5-0.7l0.7-0.5l0.7-0.5l0.4-0.7l0.5-0.7l0.7-0.5l0.7-0.5l0.4-0.7l2.3-0.7l2.3-0.5l0.5-2.3l0.7-2.3l0.7-0.5l0.4-0.7l-18-1.1
	c-12-0.8-23.7-1.5-34.9-2.3c-11.3-0.8-28.9-4.1-52.9-10.1c-24-6-49.9-15-77.7-27c-27.8-12-54.8-26.3-81.1-42.8
	c-26.3-16.5-45.3-30.3-57-41.2c-11.6-10.8-26.6-26.1-45.1-46c-18.3-20-34.2-40.5-47.8-61.5c-13.5-21-26.4-45.3-38.7-72.8l-18.7-41
	l-1.1-3.4l-1.1-3.4l-0.7-2.3l-0.5-2.3l3.4,0.5l3.4,0.7l24.8,3.4c16.5,2.3,42.4,3,77.7,2.3c35.3-0.8,59.7-2.3,73.2-4.5
	c13.5-2.3,21.8-3.8,24.8-4.5l4.5-1.1l5.6-1.1l5.6-1.1l0.5-0.7l0.7-0.5l0.7-0.5l0.4-0.7l-4.5-1.1l-4.5-1.1l-4.5-1.1l-4.5-1.1
	l-4.5-1.1c-3-0.8-8.3-2.3-15.8-4.5c-7.5-2.3-27.8-10.5-60.8-24.8c-33-14.3-59.3-28.2-78.9-41.7c-19.6-13.6-38.2-28.4-55.9-44.4
	c-17.6-16.2-36.9-37.1-57.9-62.6c-21-25.5-39.8-55.2-56.3-89c-16.5-33.8-28.9-66.1-37.2-96.9c-8.2-30.6-13.7-61.9-16.2-93.5
	l-4.1-47.3l2.3,0.5l2.3,0.7l2.3,1.1l2.3,1.1l2.3,1.1l2.3,1.1l34.9,15.8c23.3,10.5,52.2,19.5,86.7,27c34.5,7.5,55.2,11.6,62,12.4
	l10.1,1.1h20.3l-0.4-0.7l-0.7-0.5l-0.7-0.5l-0.5-0.7l-0.4-0.7l-0.7-0.5l-0.7-0.5l-0.5-0.7l-2.3-1.1l-2.3-1.1l-0.4-0.7l-0.7-0.5
	l-0.7-0.5l-0.5-0.7l-2.3-1.1l-2.3-1.1l-0.4-0.7c-0.5-0.3-6.9-5.1-19.4-14.4c-12.3-9.5-25.2-21.7-38.8-36.7
	c-13.5-15-27-30.8-40.6-47.3c-13.5-16.6-25.6-34.3-36-52.9c-10.5-18.8-21.6-42.7-33.3-71.6c-11.6-28.8-20.4-57.9-26.4-87.2
	c-6-29.3-9.4-58.2-10.1-86.7c-0.8-28.5,0-52.9,2.3-73.2c2.3-20.3,6.8-43.2,13.5-68.7s16.5-52.6,29.3-81.1l19.1-42.8l1.1-3.4l1.1-3.4
	l0.7-0.5l0.4-0.7l0.5-0.7l0.7-0.5l0.7,0.5l0.4,0.7l0.5,0.7l0.7,0.5l0.7,0.5l0.4,0.7l0.5,0.7l0.7,0.5l1.1,2.3l1.1,2.3l0.7,0.5
	l0.4,0.7l30.4,33.8c20.3,22.5,44.3,47.7,72.1,75.5c27.8,27.8,43.2,42.2,46.2,43.3c3,1.2,6.8,4.7,11.3,10.4
	c4.5,5.6,19.5,18.9,45.1,39.9c25.5,21,59,45.4,100.3,73.2c41.3,27.8,87.1,55.2,137.4,82.2c50.3,27,104.4,51.4,162.2,73.2
	c57.8,21.8,98.4,36,121.7,42.8c23.3,6.8,63.1,15.4,119.4,25.9c56.3,10.5,98.8,17.3,127.3,20.3c28.5,3,48.1,4.7,58.6,5.2l15.8,0.5
	l-0.4-3.4l-0.7-3.4L1223,592c-3-18.8-4.5-45.1-4.5-78.9s2.6-65,7.9-93.5c5.3-28.5,13.1-57.4,23.7-86.7
	c10.5-29.3,20.8-52.8,30.9-70.5c10.2-17.6,23.6-37.6,40.1-60.2c16.5-22.5,37.9-45.8,64.2-69.8c26.3-24,56.3-45.4,90.1-64.2
	s65-33,93.5-42.8c28.5-9.8,52.6-16.1,72.1-19.1C1660.4,3.2,1670.2,1.5,1670.2,1z"/>
<path class="st1" d="M0.8,899.5V0.6h1669.4V1c0,0.5-9.8,2.2-29.3,5.2c-19.5,3-43.6,9.4-72.1,19.1c-28.5,9.8-59.7,24-93.5,42.8
	s-63.8,40.2-90.1,64.2c-26.3,24-47.7,47.3-64.2,69.8c-16.5,22.5-29.9,42.6-40.1,60.2c-10.1,17.7-20.4,41.2-30.9,70.5
	c-10.5,29.3-18.4,58.2-23.7,86.7c-5.3,28.5-7.9,59.7-7.9,93.5s1.5,60.1,4.5,78.9l4.5,28.2l0.7,3.4l0.4,3.4l-15.8-0.5
	c-10.5-0.5-30-2.2-58.6-5.2c-28.5-3-71-9.8-127.3-20.3c-56.3-10.5-96.1-19.1-119.4-25.9c-23.3-6.8-63.8-21-121.7-42.8
	C728.1,510.5,674,486.1,623.7,459c-50.3-27-96.1-54.4-137.4-82.2C445,349,411.5,324.6,386,303.6c-25.5-21-40.6-34.3-45.1-39.9
	c-4.5-5.7-8.3-9.2-11.3-10.4c-3-1.1-18.4-15.5-46.2-43.3c-27.8-27.8-51.8-52.9-72.1-75.5L181,100.8l-0.4-0.7l-0.7-0.5l-1.1-2.3
	l-1.1-2.3l-0.7-0.5l-0.5-0.7l-0.4-0.7l-0.7-0.5l-0.7-0.5l-0.5-0.7l-0.4-0.7l-0.7-0.5l-0.7,0.5l-0.5,0.7l-0.4,0.7l-0.7,0.5l-1.1,3.4
	l-1.1,3.4l-19.1,42.8c-12.8,28.5-22.5,55.6-29.3,81.1s-11.3,48.4-13.5,68.7c-2.3,20.3-3,44.7-2.3,73.2c0.8,28.5,4.1,57.4,10.1,86.7
	c6,29.3,14.8,58.4,26.4,87.2c11.7,29,22.8,52.9,33.3,71.6c10.5,18.8,22.5,36.4,36,52.9c13.5,16.5,27,32.3,40.6,47.3
	c13.5,15,26.4,27.3,38.8,36.7c12.5,9.3,18.9,14.1,19.4,14.4l0.4,0.7l2.3,1.1l2.3,1.1l0.5,0.7l0.7,0.5l0.7,0.5l0.4,0.7l2.3,1.1
	l2.3,1.1l0.5,0.7l0.7,0.5l0.7,0.5l0.4,0.7l0.5,0.7l0.7,0.5l0.7,0.5l0.4,0.7h-20.3l-10.1-1.1c-6.8-0.8-27.4-4.9-62-12.4
	c-34.5-7.5-63.5-16.5-86.7-27l-34.9-15.8l-2.3-1.1l-2.3-1.1l-2.3-1.1l-2.3-1.1l-2.3-0.7l-2.3-0.5l4.1,47.3
	c2.6,31.5,8,62.7,16.2,93.5c8.3,30.8,20.7,63.1,37.2,96.9c16.5,33.8,35.3,63.5,56.3,89c21,25.5,40.3,46.4,57.9,62.6
	c17.6,16,36.3,30.8,55.9,44.4c19.5,13.5,45.8,27.4,78.9,41.7c33,14.3,53.3,22.5,60.8,24.8c7.5,2.3,12.8,3.8,15.8,4.5l4.5,1.1
	l4.5,1.1l4.5,1.1l4.5,1.1l4.5,1.1l-0.4,0.7l-0.7,0.5l-0.7,0.5l-0.5,0.7l-5.6,1.1l-5.6,1.1l-4.5,1.1c-3,0.8-11.3,2.3-24.8,4.5
	c-13.5,2.3-37.9,3.8-73.2,4.5c-35.3,0.8-61.2,0-77.7-2.3l-24.8-3.4l-3.4-0.7l-3.4-0.5l0.5,2.3l0.7,2.3l1.1,3.4l1.1,3.4l18.7,41
	c12.3,27.5,25.2,51.7,38.7,72.8c13.5,21,29.4,41.5,47.8,61.5c18.5,19.8,33.5,35.1,45.1,46c11.7,11,30.7,24.7,57,41.2
	c26.3,16.5,53.3,30.8,81.1,42.8c27.8,12,53.7,21,77.7,27c24,6,41.7,9.4,52.9,10.1c11.3,0.8,22.9,1.5,34.9,2.3l18,1.1l-0.4,0.7
	l-0.7,0.5l-0.7,2.3l-0.5,2.3l-2.3,0.5l-2.3,0.7l-0.4,0.7l-0.7,0.5l-0.7,0.5l-0.5,0.7l-0.4,0.7l-0.7,0.5l-0.7,0.5l-0.5,0.7
	l-51.8,34.9c-34.5,23.3-60.2,39.2-77,47.8c-17,8.7-45.5,21.9-85.6,39.7c-40.3,17.6-84.4,32.7-132.5,45.5
	c-48.1,12.8-89.7,21.8-125,27c-35.3,5.3-69.8,8.6-103.6,10.1s-65.7,1.5-95.7,0c-30-1.5-48.4-2.6-55.2-3.4l-10.1-1.1l-2.3-0.7
	l-2.3-0.5V899.5z M2496.5,247.9l0.4-0.7l1.1-0.7l1.1-0.5v1784.3H861.4v-1.1l80-7.9c53.3-5.3,101-11.6,143.1-19.1
	c42.1-7.5,85.6-18,130.7-31.5s87.9-28.2,128.4-43.9c40.6-15.8,78.3-32.9,113.1-51.4c35-18.3,64.9-34.6,89.7-48.9
	c24.8-14.3,52-32.1,81.6-53.4c29.7-21.5,57.5-43,83.4-64.4c26-21.3,40.7-33.6,44.2-36.9c3.3-3.5,22.8-23,58.6-58.6
	c35.6-35.7,65-67.9,88.3-96.4c23.3-28.5,46.2-59,68.7-91.2c22.5-32.3,47.3-71.7,74.3-118.3s52.9-99.1,77.7-157.7
	c24.8-58.6,45.8-118.7,63.1-180.2c17.3-61.6,30-116.8,38.3-165.6c8.3-48.8,13.9-94.2,16.9-136.3c3-42.1,4.7-79.8,5.2-113.1
	c0.3-33.5,14.6-61.7,42.8-84.7c28.1-22.8,56.8-48.9,86.1-78.2c29.3-29.3,45.2-46,47.8-50.2c2.7-4.1,4.8-6.3,6.3-6.8
	c1.5-0.3,11.6-13.1,30.4-38.3c18.8-25.1,28.3-37.8,28.6-38.3l0.7-0.5l1.1-2.3l1.1-2.3l0.7-0.5l0.4-0.7l0.5-0.7l0.7-0.5l0.7-0.5
	l0.4-0.7l0.5-0.7l0.7-0.5L2496.5,247.9L2496.5,247.9z M1830.1,9.1l-42.8-8.6h711.9v241.1l-4.5,0.5l-4.5,0.7l-2.3,1.1l-2.3,1.1
	l-2.3,1.1l-2.3,1.1l-3.4,1.1l-6.8,2.3l-60.8,20.3c-38.3,12.8-78.5,23.7-120.5,32.7l-63.1,13.5h-11.3l0.5-0.7l0.7-0.5l0.7-0.5
	l0.4-0.7l0.5-0.7l0.7-0.5l0.7-0.5l0.4-0.7l2.3-1.1l2.3-1.1l0.5-0.7l0.7-0.5l0.7-0.5l0.4-0.7l2.3-1.1l2.3-1.1l11.3-7.4
	c7.5-4.8,13.9-10.1,19.1-15.8c5.3-5.6,16-15.3,32.2-29.3c16.1-13.8,34.2-34.2,54.5-61.3c20.3-27,37.2-53.7,50.7-80
	c13.5-26.3,20.7-41.3,21.4-45.1c0.8-3.8,1.5-6.8,2.3-9l1.1-3.4l1.1-2.3l1.1-2.3l1.1-3.4l1.1-3.4l0.7-3.4l0.4-3.4l-2.3,0.5l-2.3,0.7
	l-0.4,0.7l-0.7,0.5l-0.7,0.5l-0.5,0.7l-2.3,1.1l-2.3,1.1l-2.3,1.1l-2.3,1.1l-0.4,0.7c-0.5,0.3-4.2,2.6-11.3,6.8
	c-7.2,4.1-27.3,13.6-60.4,28.6c-33,15-66.5,28.5-100.3,40.6s-65.3,21.4-94.6,28.2c-29.3,6.8-50.8,3.2-64.7-10.8
	c-14-13.8-29.7-26.9-47.3-39.2c-17.7-12.5-37.5-24.7-59.3-36.7c-21.8-12-44.4-22.6-67.6-31.5C1884.6,22,1858.7,14.7,1830.1,9.1z
	 M0.8,1916.7v-113.8h1.1l0.7,0.5L3,1804l0.5,0.7l0.7,0.5l0.7,0.5l0.4,0.7l2.3,1.1l2.3,1.1l0.5,0.7l0.7,0.5l0.7,0.5l0.4,0.7
	l20.3,12.4c13.5,8.3,25.7,15.2,36.5,20.7c11,5.7,38,19.2,81.1,40.6c43.3,21.5,95.3,42.7,156.1,63.8c60.8,21,106.6,35.3,137.4,42.8
	c30.8,7.5,73.2,15,127.3,22.5c54.1,7.5,85.2,11.6,93.5,12.4c8.3,0.8,18.8,1.5,31.5,2.3l19.1,1.1v1.1H0.8V1916.7z"/>
</svg>
