<?xml version="1.0" encoding="utf-8"?>
<!-- Generator: Adobe Illustrator 24.1.0, SVG Export Plug-In . SVG Version: 6.00 Build 0)  -->
<svg version="1.1" id="Layer_1" xmlns="http://www.w3.org/2000/svg" xmlns:xlink="http://www.w3.org/1999/xlink" x="0px" y="0px"
	 viewBox="0 0 129 129" style="enable-background:new 0 0 129 129;" xml:space="preserve">
<style type="text/css">
	.st0{fill:#F2F2F2;}
</style>
<g>
	<path class="st0" d="M10.7,99.5h4.8C12.2,105.4,13,113,18,118c2.9,2.9,6.8,4.5,11,4.5s8-1.6,11-4.5c2.9-2.9,4.5-6.8,4.5-11
		c0-2.7-0.7-5.2-2-7.5h19.3c-3.3,5.9-2.5,13.5,2.5,18.5c2.9,2.9,6.8,4.5,11,4.5s8-1.6,11-4.5c2.9-2.9,4.5-6.8,4.5-11
		c0-2.7-0.7-5.2-2-7.5H94c2.3,0,4.1-1.8,4.1-4.1c0-2.3-1.8-4.1-4.1-4.1H14.8v-8h90c1.8,0,3.4-1.2,3.9-3l13.6-49.7
		c0.3-1.2,0.1-2.5-0.7-3.5c-0.8-1-2-1.6-3.2-1.6H14.8V10.6c0-2.3-1.8-4.1-4.1-4.1s-4.1,1.8-4.1,4.1v18.9v49.7v16.1
		C6.6,97.7,8.4,99.5,10.7,99.5L10.7,99.5z M70,101.8c1.4-1.4,3.2-2.2,5.2-2.2s3.8,0.8,5.2,2.2c1.4,1.4,2.2,3.2,2.2,5.2
		s-0.8,3.8-2.2,5.2c-2.8,2.8-7.6,2.8-10.4,0C67.1,109.3,67.1,104.7,70,101.8z M23.8,101.8c1.4-1.4,3.2-2.2,5.2-2.2s3.8,0.8,5.2,2.2
		c1.4,1.4,2.2,3.2,2.2,5.2s-0.8,3.8-2.2,5.2c-2.8,2.8-7.6,2.8-10.4,0C20.9,109.3,20.9,104.7,23.8,101.8z M14.8,33.6H113l-11.4,41.6
		H14.8C14.8,75.2,14.8,33.6,14.8,33.6z"/>
</g>
</svg>
