<?xml version="1.0" encoding="utf-8"?>
<!-- Generator: Adobe Illustrator 24.1.0, SVG Export Plug-In . SVG Version: 6.00 Build 0)  -->
<svg version="1.1" id="Layer_1" xmlns="http://www.w3.org/2000/svg" xmlns:xlink="http://www.w3.org/1999/xlink" x="0px" y="0px"
	 viewBox="0 0 300 90" style="enable-background:new 0 0 300 90;" xml:space="preserve">
<style type="text/css">
	.st0{fill:#EB1E2F;}
	.st1{display:none;}
	.st2{display:inline;fill:#FFFFFF;}
	.st3{fill:#3F3F3F;}
</style>
<polyline class="st0" points="117.4,60.9 80,63.2 45,65.2 43.7,65.2 45,66.7 65.1,88.6 80,86.1 117.4,79.1 262.6,52.4 "/>
<g class="st1">
	<polyline class="st2" points="138.2,8.4 138.2,12.7 143.7,12.7 143.7,37.6 147.7,37.6 147.7,12.7 153.2,12.7 153.2,8.4 	"/>
	<rect x="276.8" y="8.4" class="st2" width="4.2" height="29.2"/>
	<polyline class="st2" points="281.2,23 292,8.4 297.4,8.4 285.8,23 297.1,37.6 291.6,37.6 	"/>
	<polyline class="st2" points="262.4,37.6 247.3,37.6 247.3,8.4 262.4,8.4 262.4,12.4 251.5,12.4 251.5,21.2 262.4,21.2 262.4,25 
		251.5,25 251.5,33.6 262.4,33.6 	"/>
	<polyline class="st2" points="217.2,37.6 213,37.6 213,8.4 217.2,8.4 217.2,20.7 229,20.7 229,8.4 232.9,8.4 232.9,37.6 229,37.6 
		229,25 217.2,25 	"/>
	<path class="st2" d="M176,16c2.2-7.3,10.4-10.3,17.3-8c1.5,0.7,3.3,1.5,4.9,2V5.4c-8.6-4-20.4-3.3-25.7,5.5
		c-5.5,8.3-2.9,20.6,6.4,25.1c4.9,2.8,13.7,2.5,18.6,0l0.2-5.5c-4.6,3.3-11.1,4.5-15.9,1.5c-5.1-3.5-6.6-7-6.6-13.3l0.2-0.7"/>
	<path class="st2" d="M124.7,24c1.5-1.5,2.2-3.8,2.2-6c0-2.8-0.9-5.3-2.9-7c-1.5-1.3-3.8-2.3-6.6-2.3c-0.4,0-0.7-0.2-0.9-0.2h-8.6
		v29.2h4.2V24.3l5.3,7.8l4,5.5h5.5l-8-11.1C121.1,26.5,123.1,25.5,124.7,24 M114.1,23.7h-2v-11h3.3c0.4,0,1.3,0.2,2,0.2
		c1.3,0.3,2.4,0.5,3.5,1c1.3,1,1.8,2.5,1.8,4c0,1.8-0.9,3.5-2,4.5c-0.9,0.5-2,1-3.3,1.3C116.5,23.7,115.2,23.7,114.1,23.7z"/>
	<path class="st2" d="M93.7,17c-0.7-1.5-2-3.3-3.5-4.5c-1.1-1.3-3.1-2.8-4.7-3.5c-1.8-0.3-3.8-0.8-5.5-0.8C80,8,80,8,80,8
		c-1.8,0-4,0.5-5.7,1.2c-1.6,0.5-3.3,1.8-4.6,3c-1.1,1.5-2.4,3.3-3.1,5c-0.9,1.5-1.1,3.8-1.1,5.5c0,2,0.2,4,1.1,5.8
		c0.4,1.8,1.3,3.3,2.2,4.5c1.5,1.8,3.5,3,5.3,3.8c1.8,0.7,4,1.2,6,1.2s4.2-0.5,6-1.2c1.8-0.8,3.8-2,5.1-3.8c1.3-1.3,2.2-2.8,2.7-4.5
		c0.9-1.8,1.3-3.5,1.3-5.8C95,20.7,94.6,18.5,93.7,17 M87.3,30.5c-1.8,2-4.6,3.3-7.3,3.3c-1.3,0-3.1-0.5-4.2-1
		c-1.3-0.2-2.7-1.5-3.3-2.3c-1.1-0.8-1.8-2.3-2.2-3.5c-0.2-1.2-0.7-2.8-0.7-4.3c0-1.2,0.4-3,0.9-4.3c0.4-1.2,1.1-2.5,2.2-3
		c0.7-1,2-2,3.3-2.5c1.1-0.2,2.7-0.7,4-0.7v0.2c1.3,0,2.7,0.5,4,0.5c1.3,0.5,2.4,1.5,3.5,2.8c0.9,1,2,2,2.2,3.2
		c0.4,1,0.9,2.5,0.9,3.8C90.6,25.8,89.5,28.5,87.3,30.5z"/>
	<path class="st2" d="M52.7,12.7c-0.7-1.3-1.8-2.3-2.7-3c-1.1-0.2-2-0.7-3.1-1c-0.4,0-1.3,0-2,0s-1.5-0.2-2.2-0.2h-6.6v29.2h4.4
		V25.8h3.1c0.4,0,0.9,0,1.3,0c2.4,0,4.6-0.8,6.2-2.3c1.5-1.5,2.9-3.8,2.9-6.3C54.1,15.7,53.6,13.9,52.7,12.7 M48.3,21
		c-0.9,0.5-2,0.8-3.3,1c-0.7,0-1.3,0-1.8,0h-2.7v-9.6h3.1c0.4,0,0.9,0.3,1.3,0.3c1.1,0,2.2,0.2,3.3,1c0.7,0.7,1.5,2,1.5,3.5
		C49.9,19,49,20.2,48.3,21z"/>
	<path class="st2" d="M17.1,31c2-4.5-1.3-7-5.3-9c-1.8-0.2-4.6-2.3-6.4-3.5C0.5,14.7,0.9,7.7,6,4.1c4-2.3,8.9-1.5,12.8,0.5v4.8
		C16.2,6.9,9.1,4.9,7.3,9.7C4.5,16.2,15.1,18,18.6,21c5.5,3.5,4.9,11.8-0.7,15.3c-4,2-11.1,2.5-14.6-0.8v-0.2v-4
		C6.9,34,14.9,36.1,17.1,31"/>
</g>
<g>
	<polyline class="st3" points="138.5,6.4 138.5,10.7 144,10.7 144,35.6 148,35.6 148,10.7 153.5,10.7 153.5,6.4 	"/>
	<rect x="277.1" y="6.4" class="st3" width="4.2" height="29.2"/>
	<polyline class="st3" points="281.5,21 292.3,6.4 297.7,6.4 286.1,21 297.4,35.6 291.9,35.6 	"/>
	<polyline class="st3" points="262.7,35.6 247.6,35.6 247.6,6.4 262.7,6.4 262.7,10.4 251.8,10.4 251.8,19.2 262.7,19.2 262.7,23 
		251.8,23 251.8,31.6 262.7,31.6 	"/>
	<polyline class="st3" points="217.5,35.6 213.3,35.6 213.3,6.4 217.5,6.4 217.5,18.7 229.3,18.7 229.3,6.4 233.2,6.4 233.2,35.6 
		229.3,35.6 229.3,23 217.5,23 	"/>
	<path class="st3" d="M176.3,14c2.2-7.3,10.4-10.3,17.3-8c1.5,0.7,3.3,1.5,4.9,2V3.4c-8.6-4-20.4-3.3-25.7,5.5
		c-5.5,8.3-2.9,20.6,6.4,25.1c4.9,2.8,13.7,2.5,18.6,0l0.2-5.5c-4.6,3.3-11.1,4.5-15.9,1.5c-5.1-3.5-6.6-7-6.6-13.3l0.2-0.7"/>
	<path class="st3" d="M125,22c1.5-1.5,2.2-3.8,2.2-6c0-2.8-0.9-5.3-2.9-7c-1.5-1.3-3.8-2.3-6.6-2.3c-0.4,0-0.7-0.2-0.9-0.2h-8.6
		v29.2h4.2V22.3l5.3,7.8l4,5.5h5.5l-8-11.1C121.4,24.5,123.4,23.5,125,22 M114.4,21.7h-2v-11h3.3c0.4,0,1.3,0.2,2,0.2
		c1.3,0.3,2.4,0.5,3.5,1c1.3,1,1.8,2.5,1.8,4c0,1.8-0.9,3.5-2,4.5c-0.9,0.5-2,1-3.3,1.3C116.8,21.7,115.5,21.7,114.4,21.7z"/>
	<path class="st3" d="M94,15c-0.7-1.5-2-3.3-3.5-4.5c-1.1-1.3-3.1-2.8-4.7-3.5C84,6.7,82,6.2,80.3,6.2c0-0.2,0-0.2,0-0.2
		c-1.8,0-4,0.5-5.7,1.2C73,7.7,71.3,9,70,10.2c-1.1,1.5-2.4,3.3-3.1,5c-0.9,1.5-1.1,3.8-1.1,5.5c0,2,0.2,4,1.1,5.8
		c0.4,1.8,1.3,3.3,2.2,4.5c1.5,1.8,3.5,3,5.3,3.8c1.8,0.7,4,1.2,6,1.2s4.2-0.5,6-1.2c1.8-0.8,3.8-2,5.1-3.8c1.3-1.3,2.2-2.8,2.7-4.5
		c0.9-1.8,1.3-3.5,1.3-5.8C95.3,18.7,94.9,16.5,94,15 M87.6,28.5c-1.8,2-4.6,3.3-7.3,3.3c-1.3,0-3.1-0.5-4.2-1
		c-1.3-0.2-2.7-1.5-3.3-2.3c-1.1-0.8-1.8-2.3-2.2-3.5c-0.2-1.2-0.7-2.8-0.7-4.3c0-1.2,0.4-3,0.9-4.3c0.4-1.2,1.1-2.5,2.2-3
		c0.7-1,2-2,3.3-2.5c1.1-0.2,2.7-0.7,4-0.7v0.2c1.3,0,2.7,0.5,4,0.5c1.3,0.5,2.4,1.5,3.5,2.8c0.9,1,2,2,2.2,3.2
		c0.4,1,0.9,2.5,0.9,3.8C90.9,23.8,89.8,26.5,87.6,28.5z"/>
	<path class="st3" d="M53,10.7c-0.7-1.3-1.8-2.3-2.7-3c-1.1-0.2-2-0.7-3.1-1c-0.4,0-1.3,0-2,0S43.7,6.5,43,6.5h-6.6v29.2h4.4V23.8
		h3.1c0.4,0,0.9,0,1.3,0c2.4,0,4.6-0.8,6.2-2.3c1.5-1.5,2.9-3.8,2.9-6.3C54.4,13.7,53.9,11.9,53,10.7 M48.6,19c-0.9,0.5-2,0.8-3.3,1
		c-0.7,0-1.3,0-1.8,0h-2.7v-9.6h3.1c0.4,0,0.9,0.3,1.3,0.3c1.1,0,2.2,0.2,3.3,1c0.7,0.7,1.5,2,1.5,3.5C50.2,17,49.3,18.2,48.6,19z"
		/>
	<path class="st3" d="M17.4,29c2-4.5-1.3-7-5.3-9c-1.8-0.2-4.6-2.3-6.4-3.5C0.8,12.7,1.2,5.7,6.3,2.1c4-2.3,8.9-1.5,12.8,0.5v4.8
		C16.5,4.9,9.4,2.9,7.6,7.7C4.8,14.2,15.4,16,18.9,19c5.5,3.5,4.9,11.8-0.7,15.3c-4,2-11.1,2.5-14.6-0.8v-0.2v-4
		C7.2,32,15.2,34.1,17.4,29"/>
</g>
<g class="st1">
	<path class="st2" d="M17,57.7h-1.9l-1.6-3.4H7.4l-1.6,3.4H3.9l6.5-14.3L17,57.7z M7.9,52.7h4.9l-2.4-5.5L7.9,52.7z"/>
	<path class="st2" d="M25.9,41.8v15.9h-1.6v-1.4c-0.2,0.3-0.4,0.6-0.6,0.8s-0.4,0.4-0.7,0.5c-0.3,0.2-0.6,0.3-0.9,0.3
		C21.9,58,21.6,58,21.4,58h-0.1h-0.1c-1.1,0-1.9-0.3-2.5-0.9c-0.6-0.6-1-1.2-1.3-2c-0.1-0.3-0.2-0.6-0.2-0.8s-0.1-0.5-0.1-0.8
		c0-1.5,0.4-2.7,1.2-3.5c0.8-0.8,1.7-1.2,2.6-1.3c0.1,0,0.1,0,0.2,0s0.1,0,0.2,0s0.3,0,0.5,0s0.3,0,0.5,0.1c0.4,0.1,0.7,0.3,1.1,0.5
		s0.6,0.6,0.8,1v-8.6h1.7V41.8z M24.2,53.3c0-0.9-0.2-1.7-0.6-2.2s-1.1-0.8-1.9-0.8s-1.4,0.3-1.9,0.8c-0.4,0.5-0.7,1.1-0.8,1.7
		c0,0.1,0,0.3-0.1,0.4c0,0.1,0,0.3,0,0.4c0,0.2,0,0.4,0.1,0.6c0,0.2,0.1,0.4,0.2,0.6c0.2,0.5,0.4,0.9,0.8,1.2c0.4,0.4,1,0.6,1.7,0.6
		c0.8,0,1.4-0.3,1.8-0.8s0.6-1.1,0.7-1.7c0-0.1,0-0.3,0.1-0.4C24.2,53.5,24.2,53.4,24.2,53.3L24.2,53.3z"/>
	<path class="st2" d="M29.6,50.1c0,0,0.1-0.1,0.1-0.2c0.1-0.1,0.2-0.2,0.3-0.3c0.2-0.2,0.4-0.3,0.7-0.5c0.3-0.1,0.7-0.2,1.1-0.2
		c0.1,0,0.2,0,0.3,0c0.1,0,0.2,0,0.3,0.1c0.3,0.1,0.7,0.2,1,0.4s0.6,0.6,0.8,1c0-0.1,0.1-0.1,0.2-0.2c0.1-0.1,0.1-0.2,0.2-0.2
		c0.2-0.3,0.6-0.5,0.9-0.8c0.4-0.2,0.9-0.4,1.4-0.4c0.1,0,0.1,0,0.2,0c0.1,0,0.1,0,0.2,0c1,0.1,1.7,0.5,2,1.2
		c0.3,0.6,0.5,1.5,0.5,2.6v5.1h-1.6v-5.2c0-0.6-0.1-1.1-0.4-1.6c-0.2-0.4-0.6-0.6-1.2-0.6c-0.6,0-1,0.2-1.4,0.5
		c-0.3,0.3-0.5,0.9-0.5,1.8v5H33v-5.5c0-0.6-0.1-1-0.4-1.3c-0.3-0.3-0.5-0.4-0.8-0.5c-0.1,0-0.1,0-0.2,0s-0.1,0-0.2,0
		c0,0-0.1,0-0.2,0s-0.1,0-0.2,0c-0.4,0-0.7,0.2-1.1,0.5c-0.3,0.3-0.5,0.8-0.5,1.7v5.1h-1.7v-8.5h1.7v1H29.6z"/>
	<path class="st2" d="M43.3,44.2c0.4,0,0.6,0.2,0.8,0.4s0.2,0.4,0.3,0.7l0,0l0,0c0,0.3-0.1,0.5-0.3,0.7s-0.4,0.3-0.7,0.3
		c-0.4,0-0.6-0.1-0.8-0.3s-0.3-0.5-0.3-0.7c0-0.3,0.1-0.5,0.3-0.8C42.6,44.3,42.9,44.2,43.3,44.2L43.3,44.2z M44.1,49.2v8.5h-1.7
		v-8.5H44.1z"/>
	<path class="st2" d="M48.3,49.2v1.1c0.2-0.2,0.4-0.3,0.5-0.5c0.1-0.1,0.3-0.3,0.4-0.4c0.2-0.2,0.5-0.3,0.7-0.4
		c0.3-0.1,0.6-0.1,1-0.2c0.1,0,0.3,0,0.4,0c0.1,0,0.3,0,0.4,0.1c0.5,0.1,1.1,0.4,1.5,0.9c0.5,0.5,0.7,1.1,0.7,2v5.7h-1.7V52
		c0-0.4-0.2-0.8-0.5-1s-0.7-0.4-1.1-0.5c0,0-0.1,0-0.2,0c-0.1,0-0.1,0-0.2,0l0,0l0,0c-0.5,0-0.9,0.2-1.3,0.6c-0.4,0.4-0.6,1-0.6,1.8
		v4.9h-1.7v-8.5L48.3,49.2L48.3,49.2z"/>
	<path class="st2" d="M63.9,44.1c0.3,0,0.6,0,1.1,0.1c0.4,0,0.9,0.1,1.4,0.2c0.7,0.2,1.4,0.6,2,1.1c0.6,0.6,0.9,1.4,0.9,2.6
		c0,1.4-0.4,2.3-1.2,2.9s-1.6,0.9-2.5,1c-0.2,0-0.4,0-0.6,0.1c-0.2,0-0.4,0-0.6,0s-0.3,0-0.5,0s-0.3,0-0.5,0v5.7h-1.7V44.1H63.9z
		 M63.4,45.7v4.9c0.1,0,0.3,0,0.4,0c0.1,0,0.2,0,0.3,0c1.1,0,2-0.2,2.6-0.6c0.6-0.4,0.9-1.1,0.9-2s-0.3-1.5-1-1.8s-1.4-0.4-2.3-0.5
		c-0.2,0-0.3,0-0.5,0C63.6,45.7,63.5,45.7,63.4,45.7L63.4,45.7z"/>
	<path class="st2" d="M69.8,53.3c0-0.1,0-0.2,0-0.3s0-0.2,0-0.4c0.1-0.9,0.6-1.7,1.3-2.5c0.7-0.8,1.8-1.1,3.2-1.1
		c0.2,0,0.5,0,0.8,0.1c0.3,0,0.6,0.1,0.8,0.2c0.7,0.2,1.4,0.6,2,1.2c0.6,0.6,0.9,1.4,1,2.6c0,0,0,0,0,0.1c0,0,0,0,0,0.1
		c0,0,0,0,0,0.1c0,0,0,0,0,0.1s0,0.3,0,0.5s0,0.3-0.1,0.5c-0.2,0.9-0.7,1.8-1.4,2.6c-0.8,0.8-1.8,1.2-3.1,1.2c-1.4,0-2.4-0.3-3-0.9
		c-0.6-0.6-1.1-1.2-1.3-1.9c-0.1-0.3-0.2-0.6-0.2-1C69.8,53.8,69.8,53.5,69.8,53.3L69.8,53.3z M77.3,53.1c0,0,0-0.1-0.1-0.3
		c0-0.3-0.2-0.6-0.4-0.9c-0.2-0.3-0.5-0.6-0.9-0.9c-0.4-0.3-0.9-0.4-1.6-0.4c-1.1,0-1.8,0.3-2.3,0.9c-0.4,0.6-0.6,1.3-0.6,2
		c0.1,0.8,0.3,1.5,0.8,1.9c0.5,0.5,1,0.7,1.5,0.9c0.1,0,0.2,0.1,0.3,0.1c0.1,0,0.2,0,0.3,0c0.8,0,1.4-0.3,1.9-0.8s0.8-1.1,0.9-1.8
		c0-0.1,0-0.1,0-0.2c0-0.1,0-0.1,0-0.2c0,0,0,0,0-0.1c0,0,0,0,0-0.1C77.3,53.2,77.3,53.2,77.3,53.1C77.3,53.2,77.3,53.2,77.3,53.1
		L77.3,53.1z"/>
	<path class="st2" d="M82.1,50.5c0.3-0.5,0.7-0.9,1.1-1.1c0.4-0.2,0.8-0.3,1.2-0.4c0.2,0,0.5,0,0.7,0.1s0.5,0.1,0.7,0.2L85,51
		c-0.1-0.1-0.2-0.1-0.4-0.2c-0.1-0.1-0.3-0.1-0.4-0.1s-0.1,0-0.2,0s-0.1,0-0.2,0c-0.4,0-0.8,0.2-1.2,0.5c-0.3,0.4-0.6,0.9-0.6,1.6v5
		h-1.7v-8.5H82L82.1,50.5L82.1,50.5z"/>
	<path class="st2" d="M87.6,46.1h1.6v3.2h1.7v1.6h-1.7v6.9h-1.6v-6.9h-1v-1.6h1V46.1z"/>
	<path class="st2" d="M99.8,49.1v8.6h-1.7v-1.4c-0.3,0.5-0.6,0.8-1.1,1.1c-0.4,0.3-1.1,0.5-1.9,0.5c-1.2,0-2.2-0.4-2.9-1.1
		C91.4,56,91,54.9,91,53.4c0-1.4,0.4-2.5,1.2-3.4c0.8-0.8,1.7-1.2,2.7-1.2l0,0l0,0c0.2,0,0.4,0,0.6,0.1c0.2,0,0.5,0.1,0.7,0.2
		c0.3,0.1,0.6,0.3,0.9,0.5s0.5,0.5,0.7,0.8v-1.3H99.8z M98.1,53.3c0-0.7-0.2-1.4-0.6-2s-1.1-0.9-2-0.9s-1.5,0.3-2,0.8
		s-0.7,1.3-0.7,2.3c0,0.9,0.2,1.6,0.7,2.1c0.5,0.6,1.1,0.9,1.7,0.9c0.9,0,1.6-0.3,2.1-0.8C97.8,55,98.1,54.3,98.1,53.3L98.1,53.3z"
		/>
	<path class="st2" d="M103.7,41.9v15.8H102V41.9H103.7z"/>
</g>
</svg>
