<?xml version="1.0" encoding="utf-8"?>
<!-- Generator: Adobe Illustrator 24.0.3, SVG Export Plug-In . SVG Version: 6.00 Build 0)  -->
<svg version="1.1" id="Layer_1" xmlns="http://www.w3.org/2000/svg" xmlns:xlink="http://www.w3.org/1999/xlink" x="0px" y="0px"
	 viewBox="0 0 2500 2500" style="enable-background:new 0 0 2500 2500;" xml:space="preserve">
<style type="text/css">
	.st0{fill:#F2F2F2;}
	.st1{fill:#FFFFFF;}
</style>
<path class="st0" d="M2362,2500c76.2,0,138-61.8,138-138V138c0-76.2-61.8-138-138-138H138C61.8,0,0,61.8,0,138v2224
	c0,76.2,61.8,138,138,138L2362,2500L2362,2500z"/>
<path class="st1" d="M1725,2500v-968.1h325l48.7-377.3h-373.6V913.7c0-109.2,30.3-183.7,187-183.7l199.8-0.1V392.4
	c-34.6-4.6-153.2-14.9-291.1-14.9c-288.1,0-485.3,175.8-485.3,498.7v278.2h-325.8v377.3h325.8V2500L1725,2500L1725,2500z"/>
</svg>
